# xmcd
#
# Track frame offsets:
#	150
#	18975
#	36544
#	61530
#	82459
#	111082
#	142742
#	160232
#	172534
#
# Disc length: 3108 seconds
#
# Revision: 1
# Processed by: cddbd v1.5PL3 Copyright (c) Steve Scherf et al.
# Submitted via: audiograbber 1.83.01
#
DISCID=680c2209
DTITLE=Kelly Richey - Live... As It Should Be [CD2]
DYEAR=2003
DGENRE=Blues
TTITLE0=Sister's Got A Problem
TTITLE1=City Between The Lines
TTITLE2=Turn To Stone
TTITLE3=Just A Thing
TTITLE4=Trouble In Mind
TTITLE5=Nobody's Fault But Mine
TTITLE6=My Baby's Gone Crazy
TTITLE7=Talks All Over Town
TTITLE8=Down By The River
EXTD=
EXTT0=
EXTT1=
EXTT2=
EXTT3=
EXTT4=
EXTT5=
EXTT6=
EXTT7=
EXTT8=
PLAYORDER=
